<svg width="38" height="38" viewBox="0 0 38 38" fill="none" xmlns="http://www.w3.org/2000/svg">
<rect width="37.7359" height="37.7359" fill="white"/>
<path d="M0 11.2705C0 7.32543 7.15256e-07 5.3529 0.767754 3.8461C1.44309 2.52069 2.52069 1.44309 3.8461 0.767753C5.3529 0 7.32542 0 11.2704 0H26.4654C30.4104 0 32.3829 0 33.8897 0.767753C35.2152 1.44309 36.2928 2.52069 36.9681 3.8461C37.7359 5.3529 37.7359 7.32542 37.7359 11.2704V26.4654C37.7359 30.4104 37.7359 32.3829 36.9681 33.8897C36.2928 35.2152 35.2152 36.2928 33.8897 36.9681C32.3829 37.7359 30.4104 37.7359 26.4654 37.7359H11.2705C7.32542 37.7359 5.3529 37.7359 3.8461 36.9681C2.52069 36.2928 1.44309 35.2152 0.767754 33.8897C7.15256e-07 32.3829 0 30.4104 0 26.4654V11.2705Z" fill="white"/>
<path d="M17.8703 12.825C17.0791 13.7481 15.3977 14.2097 14.013 14.2097H12.958V10.5173H13.6504C16.123 10.5173 17.8703 9.26448 18.5956 6.79187H21.9913V30.1992H17.8703V12.825Z" fill="#1E1E1E"/>
</svg>
