<svg xmlns="http://www.w3.org/2000/svg" width="400" height="300" viewBox="0 0 400 300" fill="none">
      
    <defs>
      <linearGradient id="bg" x1="0" y1="0" x2="400" y2="300" gradientUnits="userSpaceOnUse">
        <stop offset="0%" stop-color="#f5efe7" />
        <stop offset="100%" stop-color="#edf2ee" />
      </linearGradient>
    </defs>
    <rect x="0" y="0" width="400" height="300" rx="30" fill="url(#bg)" />
    <rect x="1" y="1" width="398" height="298" rx="29" fill="none" stroke="#16171b" stroke-opacity="0.08" stroke-width="2" />
  
      
      <rect x="30" y="34" width="280" height="192" rx="24" fill="#faf8f3" stroke="#16171b" stroke-width="2" stroke-opacity="0.18" opacity="1" />
      <rect x="52" y="58" width="104" height="66" rx="18" fill="#ffffff" stroke="#16171b" stroke-opacity="0.08" stroke-width="2" />
      <rect x="170" y="58" width="118" height="66" rx="18" fill="#16171b" opacity="0.9" />
      <rect x="186" y="82" width="48" height="10" rx="5" fill="#ccff4d" />
      <rect x="186" y="104" width="70" height="2" rx="1" fill="#16171b" opacity="0.26" />
      <rect x="52" y="138" width="72" height="52" rx="16" fill="#defa93" stroke="#16171b" stroke-opacity="0.08" stroke-width="2" />
      <rect x="138" y="138" width="72" height="52" rx="16" fill="#ffffff" stroke="#16171b" stroke-opacity="0.08" stroke-width="2" />
      <rect x="224" y="138" width="64" height="52" rx="16" fill="#eef1ee" stroke="#16171b" stroke-opacity="0.08" stroke-width="2" />
      <line x1="124" y1="164" x2="138" y2="164" stroke="#16171b" stroke-opacity="0.22" stroke-width="3" />
      <line x1="210" y1="164" x2="224" y2="164" stroke="#16171b" stroke-opacity="0.22" stroke-width="3" />
      <rect x="306" y="58" width="58" height="132" rx="24" fill="#ffffff" stroke="#16171b" stroke-width="2" stroke-opacity="0.18" opacity="1" transform="rotate(4 335 124)" />
      <rect x="318" y="84" width="28" height="8" rx="4" fill="#ccff4d" />
      <rect x="318" y="104" width="28" height="2" rx="1" fill="#16171b" opacity="0.18" />
      <rect x="318" y="122" width="22" height="2" rx="1" fill="#16171b" opacity="0.12" />
      <circle cx="326" cy="216" r="30" fill="#ccff4d" opacity="0.82" />
    
    </svg>
