<svg xmlns="http://www.w3.org/2000/svg" width="400" height="300" viewBox="0 0 400 300" fill="none">
      
    <defs>
      <linearGradient id="bg" x1="0" y1="0" x2="400" y2="300" gradientUnits="userSpaceOnUse">
        <stop offset="0%" stop-color="#f7f1e8" />
        <stop offset="100%" stop-color="#eef2eb" />
      </linearGradient>
    </defs>
    <rect x="0" y="0" width="400" height="300" rx="30" fill="url(#bg)" />
    <rect x="1" y="1" width="398" height="298" rx="29" fill="none" stroke="#16171b" stroke-opacity="0.08" stroke-width="2" />
  
      
      <rect x="36" y="40" width="242" height="176" rx="24" fill="#fbfaf5" stroke="#16171b" stroke-width="2" stroke-opacity="0.16" opacity="1" /><rect x="38" y="42" width="238" height="26" rx="18" fill="#e8dfd1" opacity="0.96" /><circle cx="54" cy="55" r="3.5" fill="#16171b" opacity="0.12" /><circle cx="66" cy="55" r="3.5" fill="#16171b" opacity="0.12" /><circle cx="78" cy="55" r="3.5" fill="#16171b" opacity="0.12" />
      <rect x="56" y="82" width="62" height="112" rx="16" fill="#ffffff" stroke="#16171b" stroke-opacity="0.08" stroke-width="2" />
      <rect x="132" y="82" width="126" height="68" rx="20" fill="#16171b" opacity="0.9" />
      <rect x="150" y="102" width="62" height="10" rx="5" fill="#ccff4d" />
      <rect x="150" y="122" width="84" height="2" rx="1" fill="#16171b" opacity="0.24" />
      <rect x="132" y="160" width="126" height="20" rx="10" fill="#defa93" stroke="#16171b" stroke-opacity="0.08" stroke-width="2" />
      <rect x="264" y="60" width="86" height="104" rx="24" fill="#ffffff" stroke="#16171b" stroke-width="2" stroke-opacity="0.18" opacity="1" transform="rotate(-6 307 112)" />
      <rect x="280" y="84" width="40" height="10" rx="5" fill="#ccff4d" />
      <rect x="280" y="108" width="48" height="2" rx="1" fill="#16171b" opacity="0.16" />
      <rect x="280" y="128" width="36" height="2" rx="1" fill="#16171b" opacity="0.12" />
      <circle cx="314" cy="202" r="38" fill="#ccff4d" opacity="0.82" />
    
    </svg>
