<svg xmlns="http://www.w3.org/2000/svg" width="400" height="300" viewBox="0 0 400 300" fill="none">
      
    <defs>
      <linearGradient id="bg" x1="0" y1="0" x2="400" y2="300" gradientUnits="userSpaceOnUse">
        <stop offset="0%" stop-color="#f6f2ea" />
        <stop offset="100%" stop-color="#f8f8f2" />
      </linearGradient>
    </defs>
    <rect x="0" y="0" width="400" height="300" rx="30" fill="url(#bg)" />
    <rect x="1" y="1" width="398" height="298" rx="29" fill="none" stroke="#16171b" stroke-opacity="0.08" stroke-width="2" />
  
      
      <rect x="42" y="42" width="210" height="150" rx="24" fill="#f1efe7" stroke="#16171b" stroke-width="2" stroke-opacity="0.18" opacity="1" />
      <rect x="72" y="58" width="102" height="84" rx="24" fill="#ffffff" stroke="#16171b" stroke-width="2" stroke-opacity="0.18" opacity="1" transform="rotate(-4 123 100)" />
      <rect x="96" y="76" width="108" height="82" rx="24" fill="#f9faf7" stroke="#16171b" stroke-width="2" stroke-opacity="0.18" opacity="1" transform="rotate(4 150 117)" />
      <rect x="144" y="54" width="172" height="148" rx="24" fill="#edf1ef" stroke="#16171b" stroke-width="2" stroke-opacity="0.18" opacity="1" />
      <rect x="250" y="146" width="86" height="106" rx="24" fill="#ffffff" stroke="#16171b" stroke-width="2" stroke-opacity="0.18" opacity="1" transform="rotate(6 293 199)" />
      <circle cx="302" cy="78" r="40" fill="#ccff4d" opacity="0.82" />
      <rect x="42" y="220" width="92" height="14" rx="7" fill="#ccff4d" />
      <rect x="42" y="210" width="121.8" height="2" rx="1" fill="#16171b" opacity="0.18" /><rect x="42" y="238" width="71.4" height="2" rx="1" fill="#16171b" opacity="0.135" />
      <circle cx="262" cy="58" r="1.8" fill="#16171b" opacity="0.12" /><circle cx="274" cy="58" r="1.8" fill="#16171b" opacity="0.12" /><circle cx="286" cy="58" r="1.8" fill="#16171b" opacity="0.12" /><circle cx="298" cy="58" r="1.8" fill="#16171b" opacity="0.12" /><circle cx="310" cy="58" r="1.8" fill="#16171b" opacity="0.12" /><circle cx="322" cy="58" r="1.8" fill="#16171b" opacity="0.12" /><circle cx="334" cy="58" r="1.8" fill="#16171b" opacity="0.12" /><circle cx="262" cy="70" r="1.8" fill="#16171b" opacity="0.12" /><circle cx="274" cy="70" r="1.8" fill="#16171b" opacity="0.12" /><circle cx="286" cy="70" r="1.8" fill="#16171b" opacity="0.12" /><circle cx="298" cy="70" r="1.8" fill="#16171b" opacity="0.12" /><circle cx="310" cy="70" r="1.8" fill="#16171b" opacity="0.12" /><circle cx="322" cy="70" r="1.8" fill="#16171b" opacity="0.12" /><circle cx="334" cy="70" r="1.8" fill="#16171b" opacity="0.12" /><circle cx="262" cy="82" r="1.8" fill="#16171b" opacity="0.12" /><circle cx="274" cy="82" r="1.8" fill="#16171b" opacity="0.12" /><circle cx="286" cy="82" r="1.8" fill="#16171b" opacity="0.12" /><circle cx="298" cy="82" r="1.8" fill="#16171b" opacity="0.12" /><circle cx="310" cy="82" r="1.8" fill="#16171b" opacity="0.12" /><circle cx="322" cy="82" r="1.8" fill="#16171b" opacity="0.12" /><circle cx="334" cy="82" r="1.8" fill="#16171b" opacity="0.12" /><circle cx="262" cy="94" r="1.8" fill="#16171b" opacity="0.12" /><circle cx="274" cy="94" r="1.8" fill="#16171b" opacity="0.12" /><circle cx="286" cy="94" r="1.8" fill="#16171b" opacity="0.12" /><circle cx="298" cy="94" r="1.8" fill="#16171b" opacity="0.12" /><circle cx="310" cy="94" r="1.8" fill="#16171b" opacity="0.12" /><circle cx="322" cy="94" r="1.8" fill="#16171b" opacity="0.12" /><circle cx="334" cy="94" r="1.8" fill="#16171b" opacity="0.12" /><circle cx="262" cy="106" r="1.8" fill="#16171b" opacity="0.12" /><circle cx="274" cy="106" r="1.8" fill="#16171b" opacity="0.12" /><circle cx="286" cy="106" r="1.8" fill="#16171b" opacity="0.12" /><circle cx="298" cy="106" r="1.8" fill="#16171b" opacity="0.12" /><circle cx="310" cy="106" r="1.8" fill="#16171b" opacity="0.12" /><circle cx="322" cy="106" r="1.8" fill="#16171b" opacity="0.12" /><circle cx="334" cy="106" r="1.8" fill="#16171b" opacity="0.12" /><circle cx="262" cy="118" r="1.8" fill="#16171b" opacity="0.12" /><circle cx="274" cy="118" r="1.8" fill="#16171b" opacity="0.12" /><circle cx="286" cy="118" r="1.8" fill="#16171b" opacity="0.12" /><circle cx="298" cy="118" r="1.8" fill="#16171b" opacity="0.12" /><circle cx="310" cy="118" r="1.8" fill="#16171b" opacity="0.12" /><circle cx="322" cy="118" r="1.8" fill="#16171b" opacity="0.12" /><circle cx="334" cy="118" r="1.8" fill="#16171b" opacity="0.12" />
    
    </svg>
